<svg width="1000" height="1000" viewBox="0 0 1000 1000" fill="none" xmlns="http://www.w3.org/2000/svg">
<rect width="1000" height="1000" fill="#ED1B24"/>
<path d="M164.833 478.44C158.193 478.44 151.753 477.56 145.513 475.8C139.353 473.96 134.393 471.6 130.633 468.72L137.233 454.08C140.833 456.72 145.113 458.84 150.073 460.44C155.033 462.04 159.993 462.84 164.953 462.84C170.473 462.84 174.553 462.04 177.193 460.44C179.833 458.76 181.153 456.56 181.153 453.84C181.153 451.84 180.353 450.2 178.753 448.92C177.233 447.56 175.233 446.48 172.753 445.68C170.353 444.88 167.073 444 162.913 443.04C156.513 441.52 151.273 440 147.193 438.48C143.113 436.96 139.593 434.52 136.633 431.16C133.753 427.8 132.313 423.32 132.313 417.72C132.313 412.84 133.633 408.44 136.273 404.52C138.913 400.52 142.873 397.36 148.153 395.04C153.513 392.72 160.033 391.56 167.713 391.56C173.073 391.56 178.313 392.2 183.433 393.48C188.553 394.76 193.033 396.6 196.873 399L190.873 413.76C183.113 409.36 175.353 407.16 167.593 407.16C162.153 407.16 158.113 408.04 155.473 409.8C152.913 411.56 151.633 413.88 151.633 416.76C151.633 419.64 153.113 421.8 156.073 423.24C159.113 424.6 163.713 425.96 169.873 427.32C176.273 428.84 181.513 430.36 185.593 431.88C189.673 433.4 193.153 435.8 196.033 439.08C198.993 442.36 200.473 446.8 200.473 452.4C200.473 457.2 199.113 461.6 196.393 465.6C193.753 469.52 189.753 472.64 184.393 474.96C179.033 477.28 172.513 478.44 164.833 478.44ZM290.197 477L290.077 426.6L265.357 468.12H256.597L231.997 427.68V477H213.757V393H229.837L261.277 445.2L292.237 393H308.197L308.437 477H290.197ZM383.686 459H344.686L337.246 477H317.326L354.766 393H373.966L411.526 477H391.126L383.686 459ZM377.566 444.24L364.246 412.08L350.926 444.24H377.566ZM473.761 477L457.561 453.6H456.601H439.681V477H420.241V393H456.601C464.041 393 470.481 394.24 475.921 396.72C481.441 399.2 485.681 402.72 488.641 407.28C491.601 411.84 493.081 417.24 493.081 423.48C493.081 429.72 491.561 435.12 488.521 439.68C485.561 444.16 481.321 447.6 475.801 450L494.641 477H473.761ZM473.401 423.48C473.401 418.76 471.881 415.16 468.841 412.68C465.801 410.12 461.361 408.84 455.521 408.84H439.681V438.12H455.521C461.361 438.12 465.801 436.84 468.841 434.28C471.881 431.72 473.401 428.12 473.401 423.48ZM524.712 408.84H497.832V393H571.032V408.84H544.152V477H524.712V408.84ZM670.796 459H631.796L624.356 477H604.436L641.876 393H661.076L698.636 477H678.236L670.796 459ZM664.676 444.24L651.356 412.08L638.036 444.24H664.676ZM743.711 393C751.151 393 757.591 394.24 763.031 396.72C768.551 399.2 772.791 402.72 775.751 407.28C778.711 411.84 780.191 417.24 780.191 423.48C780.191 429.64 778.711 435.04 775.751 439.68C772.791 444.24 768.551 447.76 763.031 450.24C757.591 452.64 751.151 453.84 743.711 453.84H726.791V477H707.351V393H743.711ZM742.631 438C748.471 438 752.911 436.76 755.951 434.28C758.991 431.72 760.511 428.12 760.511 423.48C760.511 418.76 758.991 415.16 755.951 412.68C752.911 410.12 748.471 408.84 742.631 408.84H726.791V438H742.631ZM830.429 393C837.869 393 844.309 394.24 849.749 396.72C855.269 399.2 859.509 402.72 862.469 407.28C865.429 411.84 866.909 417.24 866.909 423.48C866.909 429.64 865.429 435.04 862.469 439.68C859.509 444.24 855.269 447.76 849.749 450.24C844.309 452.64 837.869 453.84 830.429 453.84H813.509V477H794.069V393H830.429ZM829.349 438C835.189 438 839.629 436.76 842.669 434.28C845.709 431.72 847.229 428.12 847.229 423.48C847.229 418.76 845.709 415.16 842.669 412.68C839.629 410.12 835.189 408.84 829.349 408.84H813.509V438H829.349ZM399.607 565.68C405.607 566.8 410.167 569.16 413.287 572.76C416.487 576.36 418.087 581.04 418.087 586.8C418.087 593.92 415.487 599.4 410.287 603.24C405.087 607.08 397.367 609 387.127 609H349.687V525H384.727C393.847 525 400.927 526.88 405.967 530.64C411.087 534.32 413.647 539.6 413.647 546.48C413.647 551.28 412.367 555.32 409.807 558.6C407.327 561.88 403.927 564.24 399.607 565.68ZM355.807 530.28V563.76H384.487C391.847 563.76 397.487 562.36 401.407 559.56C405.407 556.68 407.407 552.48 407.407 546.96C407.407 541.52 405.407 537.4 401.407 534.6C397.487 531.72 391.847 530.28 384.487 530.28H355.807ZM387.127 603.72C395.287 603.72 401.447 602.32 405.607 599.52C409.847 596.64 411.967 592.24 411.967 586.32C411.967 580.4 409.847 576.04 405.607 573.24C401.447 570.44 395.287 569.04 387.127 569.04H355.807V603.72H387.127ZM491.881 585.36H443.161L432.481 609H425.881L464.521 525H470.641L509.281 609H502.681L491.881 585.36ZM489.601 580.2L467.521 531.72L445.561 580.2H489.601ZM592.931 525V609H587.891L530.651 536.04V609H524.531V525H529.691L586.811 597.96V525H592.931ZM690.665 525V609H685.625L628.385 536.04V609H622.265V525H627.425L684.545 597.96V525H690.665ZM777.959 603.48V609H719.999V525H776.159V530.52H726.119V563.64H770.879V569.04H726.119V603.48H777.959ZM858.593 609L838.553 580.92C835.593 581.32 832.873 581.52 830.393 581.52H806.393V609H800.273V525H830.393C840.953 525 849.233 527.52 855.233 532.56C861.233 537.52 864.233 544.44 864.233 553.32C864.233 559.96 862.513 565.56 859.073 570.12C855.713 574.6 850.873 577.76 844.553 579.6L865.553 609H858.593ZM830.393 576.12C839.353 576.12 846.193 574.16 850.913 570.24C855.633 566.24 857.993 560.6 857.993 553.32C857.993 546.04 855.633 540.44 850.913 536.52C846.193 532.52 839.353 530.52 830.393 530.52H806.393V576.12H830.393Z" fill="white"/>
</svg>
